<svg width="38" className="logoSvg" height="24" viewBox="0 0 38 24" xmlns="http://www.w3.org/2000/svg">
<path fill-rule="evenodd" clip-rule="evenodd" d="M15.7927 4.08988H24.9049V4.08904L26.8755 4.08921C29.1745 4.0895 31.4735 4.08979 33.7725 4.08652C34.0156 4.08652 34.2612 4.06801 34.5001 4.02595C35.5254 3.84679 36.3574 3.332 36.9992 2.52028C37.5173 1.86501 37.8142 1.11554 37.8614 0.276901C37.8765 0.00857088 37.8605 0.000159273 37.5964 0.000159273L34.833 7.96348e-05C29.7669 -0.000139365 24.7013 -0.000358347 19.6351 0.0060474C19.3062 0.00688856 18.9706 0.0472643 18.6501 0.122128C16.9215 0.525044 15.5983 2.12409 15.5411 3.82828L15.5402 3.85555C15.5364 3.96868 15.5345 4.0272 15.5628 4.05746C15.593 4.08988 15.658 4.08988 15.7927 4.08988ZM31.7932 23.2374C31.8005 23.2346 31.8079 23.2318 31.8151 23.2288L31.8135 23.2271C31.7916 23.1968 31.7689 23.1657 31.7462 23.1354C31.6834 23.1211 31.6204 23.1071 31.5574 23.0931L31.5573 23.0931C31.4203 23.0627 31.2832 23.0323 31.1473 22.9983C30.2371 22.7695 29.6239 22.2236 29.3413 21.3177C29.1571 20.7263 29.078 20.1165 29.073 19.5041C29.0542 17.308 29.0463 15.1119 29.0385 12.9158L29.0385 12.9146L29.0334 11.5274C29.0315 11.0409 29.032 10.5548 29.0325 10.0687V10.0686V10.0686C29.0329 9.69063 29.0333 9.31278 29.0326 8.93493C29.0326 8.85579 29.0342 8.77635 29.0358 8.69684L29.0358 8.69661C29.0401 8.48206 29.0444 8.26697 29.0174 8.05591C28.7474 5.93114 27.0702 4.33209 24.921 4.13442C24.6299 4.10834 24.6047 4.13021 24.6047 4.41453L24.6046 7.20704C24.6044 11.3919 24.6041 15.5763 24.6089 19.7607C24.6098 20.1013 24.6367 20.4487 24.7048 20.7818C25.0354 22.3952 26.0759 23.3465 27.6051 23.8134C28.2402 24.0068 28.893 24.027 29.5566 23.9749C30.317 23.916 31.016 23.7023 31.6578 23.2944C31.6896 23.2745 31.7259 23.2616 31.7624 23.2485L31.7625 23.2485C31.7727 23.2449 31.783 23.2412 31.7932 23.2374ZM16.2652 23.1741C16.2423 23.1931 16.2223 23.2105 16.2041 23.2264C16.1679 23.258 16.1383 23.2838 16.1054 23.3045C15.4644 23.7167 14.762 23.9152 14.0016 23.9766C13.2395 24.038 12.5027 23.9682 11.7827 23.7209C11.3049 23.5568 10.8607 23.323 10.4738 22.9983C9.57965 22.2488 9.09178 21.284 9.08842 20.1173C9.07958 16.1864 9.08069 12.2555 9.08179 8.32463C9.08216 7.01426 9.08253 5.70388 9.08253 4.39351C9.08253 4.14285 9.11113 4.11341 9.34665 4.13359C10.4965 4.23285 11.4874 4.68035 12.2857 5.51814C13.0932 6.36519 13.5138 7.37795 13.5138 8.55558C13.5138 9.43872 13.5134 10.3218 13.513 11.2049V11.2049C13.5118 13.7282 13.5107 16.2513 13.5188 18.7748C13.5213 19.5849 13.5567 20.3966 13.7737 21.1873C13.8914 21.618 14.0698 22.031 14.381 22.338C14.7435 22.6955 15.2079 22.9192 15.7159 23.0269C15.7703 23.0385 15.8248 23.0495 15.8793 23.0605C15.9597 23.0767 16.0403 23.093 16.1205 23.111C16.1449 23.1163 16.168 23.1273 16.1995 23.1424L16.1995 23.1424L16.1996 23.1424C16.218 23.1512 16.2392 23.1613 16.2652 23.1724V23.1741ZM0.262689 4.08902H4.9774C5.42796 4.08902 5.87859 4.08961 6.32928 4.0902C7.39983 4.0916 8.47068 4.093 9.54153 4.08649C10.8302 4.07892 11.8539 3.50525 12.6614 2.53623C13.188 1.90452 13.4546 1.15168 13.5429 0.336599C13.5766 0.0245282 13.5547 0.000134586 13.2477 0.000134586C12.6905 0.000134586 12.1333 0.00010094 11.5761 6.72941e-05C9.34737 -6.7292e-05 7.11849 -0.000201884 4.88907 0.00181691C4.49541 0.00265807 4.10091 0.0102285 3.70808 0.0371457C2.59102 0.11285 1.69266 0.625958 0.969265 1.46039C0.389705 2.12995 0.0835222 2.91728 0.0095001 3.79966L0.0087285 3.80908C-0.0132703 4.07751 -0.0142134 4.08902 0.262689 4.08902Z"/>
</svg>
